<mxfile host="app.diagrams.net" modified="2023-09-28T18:45:29.669Z" agent="Mozilla/5.0 (X11; Linux x86_64; rv:109.0) Gecko/20100101 Firefox/114.0" version="22.0.0" etag="zucfbPhWk1I06SAPA4Ly" type="github">
  <diagram name="Page-1" id="ffP9f0a0-D-cKnNLKEZI">
    <mxGraphModel>
      <root>
        <mxCell id="0" />
        <mxCell id="1" parent="0" />
      </root>
    </mxGraphModel>
  </diagram>
</mxfile>
